/* XPM */
static char * w3af_xpm[] = {
"32 32 2 1",
" 	c None",
".	c #000000",
"                                ",
"            ........            ",
"          ..       ...          ",
"                      ..        ",
" ..                     ..      ",
" . .                      .     ",
"  . .                      .    ",
"  . ..                      .   ",
"  .. ...                     .  ",
"   .  ...                    .  ",
"  .........                   . ",
"  . ..........                . ",
" . .................            ",
"    ...  ........ .            .",
"   ...    ........             .",
"    ..    ........             .",
".  ...   .  .....              .",
".   ..       ....              .",
"     ..  .   . ..              .",
"     ...   .  ..               .",
" .    ......   .              . ",
" .     ....    ..             . ",
"        ....   .              . ",
"                             .  ",
"   .                        ..  ",
"   ..    ......             .   ",
"    ..     ...            ..    ",
"     ...    ..            .     ",
"      ....  .           ..      ",
"        ......        ..        ",
"          ......  ....          ",
"               ...              "};
